<mxfile host="app.diagrams.net" modified="2022-12-07T14:59:53.986Z" agent="5.0 (Windows NT 10.0; Win64; x64) AppleWebKit/537.36 (KHTML, like Gecko) Chrome/108.0.0.0 Safari/537.36" etag="ev8O0uFwFZzuBTHaT-Cx" version="20.6.0" type="github">
  <diagram id="Q-u3Var4rviJO-5498zc" name="Page-1">
    <mxGraphModel dx="1182" dy="559" grid="1" gridSize="10" guides="1" tooltips="1" connect="1" arrows="1" fold="1" page="1" pageScale="1" pageWidth="850" pageHeight="1100" math="0" shadow="0">
      <root>
        <mxCell id="0" />
        <mxCell id="1" parent="0" />
        <mxCell id="gbeb102Nz4SGvJQ0JvyH-3" value="" style="endArrow=classic;html=1;rounded=0;strokeWidth=4;jumpStyle=sharp;" parent="1" edge="1">
          <mxGeometry width="50" height="50" relative="1" as="geometry">
            <mxPoint x="79" y="440" as="sourcePoint" />
            <mxPoint x="79" y="30" as="targetPoint" />
          </mxGeometry>
        </mxCell>
        <mxCell id="gbeb102Nz4SGvJQ0JvyH-4" value="" style="endArrow=classic;html=1;rounded=0;strokeWidth=4;fontSize=16;" parent="1" edge="1">
          <mxGeometry width="50" height="50" relative="1" as="geometry">
            <mxPoint x="80" y="440" as="sourcePoint" />
            <mxPoint x="840" y="440" as="targetPoint" />
          </mxGeometry>
        </mxCell>
        <mxCell id="gbeb102Nz4SGvJQ0JvyH-8" value="Genesis" style="text;html=1;strokeColor=none;fillColor=none;align=center;verticalAlign=middle;whiteSpace=wrap;rounded=0;fontFamily=Courgette;fontSource=https%3A%2F%2Ffonts.googleapis.com%2Fcss%3Ffamily%3DCourgette;fontSize=16;fontStyle=0" parent="1" vertex="1">
          <mxGeometry x="84" y="440" width="60" height="30" as="geometry" />
        </mxCell>
        <mxCell id="gbeb102Nz4SGvJQ0JvyH-9" value="Custom Build" style="text;html=1;strokeColor=none;fillColor=none;align=left;verticalAlign=middle;whiteSpace=wrap;rounded=0;fontFamily=Courgette;fontSource=https%3A%2F%2Ffonts.googleapis.com%2Fcss%3Ffamily%3DCourgette;fontSize=16;fontStyle=0" parent="1" vertex="1">
          <mxGeometry x="239" y="440" width="101" height="30" as="geometry" />
        </mxCell>
        <mxCell id="gbeb102Nz4SGvJQ0JvyH-10" value="Product" style="text;html=1;strokeColor=none;fillColor=none;align=center;verticalAlign=middle;whiteSpace=wrap;rounded=0;fontFamily=Courgette;fontSource=https%3A%2F%2Ffonts.googleapis.com%2Fcss%3Ffamily%3DCourgette;fontSize=16;fontStyle=0" parent="1" vertex="1">
          <mxGeometry x="445" y="443" width="60" height="30" as="geometry" />
        </mxCell>
        <mxCell id="gbeb102Nz4SGvJQ0JvyH-11" value="Basic Service (+Utility)" style="text;html=1;strokeColor=none;fillColor=none;align=left;verticalAlign=middle;whiteSpace=wrap;rounded=0;fontFamily=Courgette;fontSource=https%3A%2F%2Ffonts.googleapis.com%2Fcss%3Ffamily%3DCourgette;fontSize=16;fontStyle=0" parent="1" vertex="1">
          <mxGeometry x="640" y="443" width="180" height="30" as="geometry" />
        </mxCell>
        <mxCell id="gbeb102Nz4SGvJQ0JvyH-14" value="" style="endArrow=none;dashed=1;html=1;dashPattern=1 3;strokeWidth=2;rounded=0;fontFamily=Verdana;fontSize=21;jumpStyle=arc;" parent="1" edge="1">
          <mxGeometry width="50" height="50" relative="1" as="geometry">
            <mxPoint x="240" y="440" as="sourcePoint" />
            <mxPoint x="240" y="40" as="targetPoint" />
          </mxGeometry>
        </mxCell>
        <mxCell id="gbeb102Nz4SGvJQ0JvyH-15" value="" style="endArrow=none;dashed=1;html=1;dashPattern=1 3;strokeWidth=2;rounded=0;fontFamily=Verdana;fontSize=21;jumpStyle=arc;" parent="1" edge="1">
          <mxGeometry width="50" height="50" relative="1" as="geometry">
            <mxPoint x="440" y="440" as="sourcePoint" />
            <mxPoint x="440" y="40" as="targetPoint" />
          </mxGeometry>
        </mxCell>
        <mxCell id="gbeb102Nz4SGvJQ0JvyH-16" value="" style="endArrow=none;dashed=1;html=1;dashPattern=1 3;strokeWidth=2;rounded=0;fontFamily=Verdana;fontSize=21;jumpStyle=arc;" parent="1" edge="1">
          <mxGeometry width="50" height="50" relative="1" as="geometry">
            <mxPoint x="640" y="430" as="sourcePoint" />
            <mxPoint x="640" y="30" as="targetPoint" />
          </mxGeometry>
        </mxCell>
        <mxCell id="gbeb102Nz4SGvJQ0JvyH-7" value="" style="image;html=1;image=img/lib/clip_art/people/Scientist_Woman_Black_128x128.png" parent="1" vertex="1">
          <mxGeometry x="445" y="10" width="80" height="80" as="geometry" />
        </mxCell>
        <mxCell id="gbeb102Nz4SGvJQ0JvyH-18" value="Invisible" style="text;html=1;strokeColor=none;fillColor=none;align=center;verticalAlign=middle;whiteSpace=wrap;rounded=0;fontFamily=Courgette;fontSource=https%3A%2F%2Ffonts.googleapis.com%2Fcss%3Ffamily%3DCourgette;fontSize=16;fontStyle=0;rotation=-90;" parent="1" vertex="1">
          <mxGeometry x="35" y="390" width="56" height="30" as="geometry" />
        </mxCell>
        <mxCell id="gbeb102Nz4SGvJQ0JvyH-19" value="Visible" style="text;html=1;strokeColor=none;fillColor=none;align=center;verticalAlign=middle;whiteSpace=wrap;rounded=0;fontFamily=Courgette;fontSource=https%3A%2F%2Ffonts.googleapis.com%2Fcss%3Ffamily%3DCourgette;fontSize=16;fontStyle=0;rotation=-90;" parent="1" vertex="1">
          <mxGeometry x="32" y="63" width="56" height="30" as="geometry" />
        </mxCell>
        <mxCell id="gbeb102Nz4SGvJQ0JvyH-20" value="Value Chain" style="text;html=1;strokeColor=none;fillColor=none;align=center;verticalAlign=middle;whiteSpace=wrap;rounded=0;fontFamily=Courgette;fontSource=https%3A%2F%2Ffonts.googleapis.com%2Fcss%3Ffamily%3DCourgette;fontSize=18;fontStyle=1;rotation=-90;" parent="1" vertex="1">
          <mxGeometry x="-1" y="215" width="110" height="30" as="geometry" />
        </mxCell>
        <mxCell id="gbeb102Nz4SGvJQ0JvyH-23" value="Visibility" style="text;html=1;strokeColor=none;fillColor=none;align=center;verticalAlign=middle;whiteSpace=wrap;rounded=0;fontFamily=Courgette;fontSource=https%3A%2F%2Ffonts.googleapis.com%2Fcss%3Ffamily%3DCourgette;fontSize=18;fontStyle=1;rotation=0;" parent="1" vertex="1">
          <mxGeometry x="720" y="473" width="110" height="30" as="geometry" />
        </mxCell>
        <mxCell id="gbeb102Nz4SGvJQ0JvyH-24" value="" style="ellipse;whiteSpace=wrap;html=1;aspect=fixed;fontFamily=Verdana;fontSize=18;strokeWidth=2;" parent="1" vertex="1">
          <mxGeometry x="475" y="310" width="20" height="20" as="geometry" />
        </mxCell>
        <mxCell id="gbeb102Nz4SGvJQ0JvyH-25" value="" style="endArrow=none;html=1;rounded=0;strokeWidth=2;fontFamily=Verdana;fontSize=18;jumpStyle=arc;entryX=0.5;entryY=1;entryDx=0;entryDy=0;exitX=0.25;exitY=0;exitDx=0;exitDy=0;" parent="1" source="gbeb102Nz4SGvJQ0JvyH-52" target="gbeb102Nz4SGvJQ0JvyH-7" edge="1">
          <mxGeometry width="50" height="50" relative="1" as="geometry">
            <mxPoint x="510" y="140" as="sourcePoint" />
            <mxPoint x="490" y="240" as="targetPoint" />
          </mxGeometry>
        </mxCell>
        <mxCell id="gbeb102Nz4SGvJQ0JvyH-26" value="Capability" style="text;html=1;strokeColor=none;fillColor=none;align=center;verticalAlign=middle;whiteSpace=wrap;rounded=0;fontFamily=Verdana;fontSize=14;" parent="1" vertex="1">
          <mxGeometry x="505" y="305" width="60" height="30" as="geometry" />
        </mxCell>
        <mxCell id="gbeb102Nz4SGvJQ0JvyH-32" value="Need" style="text;html=1;strokeColor=none;fillColor=none;align=center;verticalAlign=middle;whiteSpace=wrap;rounded=0;fontFamily=Verdana;fontSize=14;fontColor=#4472C4;" parent="1" vertex="1">
          <mxGeometry x="120.5" y="565" width="41" height="30" as="geometry" />
        </mxCell>
        <mxCell id="gbeb102Nz4SGvJQ0JvyH-34" value="" style="shape=image;verticalLabelPosition=bottom;labelBackgroundColor=default;verticalAlign=top;aspect=fixed;imageAspect=0;image=data:image/png,iVBORw0KGgoAAAANSUhEUgAAACQAAAAkCAMAAADW3miqAAAAAXNSR0IArs4c6QAAAARnQU1BAACxjwv8YQUAAADJUExURQAAAECAv0Bwv0B1v0hwx0ZzxkVwxURyxER0w0Nxw0NzwkNxwkVxxERyxERxxERyw0RzxERyxERzxEVyxUVzxURyxURyxERzxERyxERzxERyxEVyxURyxERyxERyxERyw0RyxERzxEVyxUZ0xUh0xUp2xk15x1B7yFF7yVZ/yleAyluDy1yEzGGIzWSJzmWLz2aLz3OW03uc1X+e14Wj2Yun25y14Ke8463B5bnK6b7O6sTT7NDc8N3m9OLp9ujt+PP2+/n7/f///xuUCyQAAAAfdFJOUwAIEBggKDA4QEhQWGhweICHj5efp6+3v8fP19/n7/dK1oigAAAACXBIWXMAABcRAAAXEQHKJvM/AAABo0lEQVQ4T32UiVbCMBBFwypWlrK2UsAooiKiEURFqEv+/6N80wwlUco7J6/pzD3JtFmEo3K9FUDtxikH/qnYjGSqYbvCYVt5f8T5nbpFTqXyhpyyVeckq26ik+U7fLteXZv3To7zpLaJyR+t4VprJS+TQLinknEmaEgbV1LObinaZUR49GYR8FjrOAnu6irwZx2GZDmBmug5c8EZmqKFxJRooPs4jpVSqS+UWuAxQ0p6gFrUcYaBo3BlXsxQAzwvjkGyICrw8dN+Imc6pW6QrgofvnKHgXPhWr/Be6IDX2dDn/C+CODbbOgbPhK8h2wCvi+c/mDycVAmRCsoQhiUCZFEF7ZxCXha0xc8Sn74azb0AQ/FGXyeDb3AfZE3G8Um4E5NJ0L0ks4RaIAFNvvyCOTThjpH58HkUueantEGyVkoo0eH4wBEqhGz23YZUMCHKkeLLOdoKYeaHmkuGeUNg3vArPKVA40pNCwxAhV4BZdr2hpab+7Me2TOEyvHdUFT+lKjMJ2L5fU5k2pYs68LVtW6w4D4f4dhlRqBWcmwZd1zQvwCczOpTLAqjrgAAAAASUVORK5CYII=;" parent="1" vertex="1">
          <mxGeometry x="91" y="570" width="25" height="25" as="geometry" />
        </mxCell>
        <mxCell id="gbeb102Nz4SGvJQ0JvyH-36" value="Need" style="text;html=1;strokeColor=none;fillColor=none;align=center;verticalAlign=middle;whiteSpace=wrap;rounded=0;fontFamily=Verdana;fontSize=14;fontColor=#4472C4;" parent="1" vertex="1">
          <mxGeometry x="679" y="135" width="41" height="30" as="geometry" />
        </mxCell>
        <mxCell id="gbeb102Nz4SGvJQ0JvyH-37" value="" style="shape=image;verticalLabelPosition=bottom;labelBackgroundColor=default;verticalAlign=top;aspect=fixed;imageAspect=0;image=data:image/png,iVBORw0KGgoAAAANSUhEUgAAACQAAAAkCAMAAADW3miqAAAAAXNSR0IArs4c6QAAAARnQU1BAACxjwv8YQUAAADJUExURQAAAECAv0Bwv0B1v0hwx0ZzxkVwxURyxER0w0Nxw0NzwkNxwkVxxERyxERxxERyw0RzxERyxERzxEVyxUVzxURyxURyxERzxERyxERzxERyxEVyxURyxERyxERyxERyw0RyxERzxEVyxUZ0xUh0xUp2xk15x1B7yFF7yVZ/yleAyluDy1yEzGGIzWSJzmWLz2aLz3OW03uc1X+e14Wj2Yun25y14Ke8463B5bnK6b7O6sTT7NDc8N3m9OLp9ujt+PP2+/n7/f///xuUCyQAAAAfdFJOUwAIEBggKDA4QEhQWGhweICHj5efp6+3v8fP19/n7/dK1oigAAAACXBIWXMAABcRAAAXEQHKJvM/AAABo0lEQVQ4T32UiVbCMBBFwypWlrK2UsAooiKiEURFqEv+/6N80wwlUco7J6/pzD3JtFmEo3K9FUDtxikH/qnYjGSqYbvCYVt5f8T5nbpFTqXyhpyyVeckq26ik+U7fLteXZv3To7zpLaJyR+t4VprJS+TQLinknEmaEgbV1LObinaZUR49GYR8FjrOAnu6irwZx2GZDmBmug5c8EZmqKFxJRooPs4jpVSqS+UWuAxQ0p6gFrUcYaBo3BlXsxQAzwvjkGyICrw8dN+Imc6pW6QrgofvnKHgXPhWr/Be6IDX2dDn/C+CODbbOgbPhK8h2wCvi+c/mDycVAmRCsoQhiUCZFEF7ZxCXha0xc8Sn74azb0AQ/FGXyeDb3AfZE3G8Um4E5NJ0L0ks4RaIAFNvvyCOTThjpH58HkUueantEGyVkoo0eH4wBEqhGz23YZUMCHKkeLLOdoKYeaHmkuGeUNg3vArPKVA40pNCwxAhV4BZdr2hpab+7Me2TOEyvHdUFT+lKjMJ2L5fU5k2pYs68LVtW6w4D4f4dhlRqBWcmwZd1zQvwCczOpTLAqjrgAAAAASUVORK5CYII=;" parent="1" vertex="1">
          <mxGeometry x="640" y="140" width="20" height="20" as="geometry" />
        </mxCell>
        <mxCell id="gbeb102Nz4SGvJQ0JvyH-38" value="" style="endArrow=none;html=1;rounded=0;strokeWidth=2;fontFamily=Verdana;fontSize=18;jumpStyle=arc;entryX=0.75;entryY=1;entryDx=0;entryDy=0;exitX=0;exitY=0.25;exitDx=0;exitDy=0;" parent="1" source="gbeb102Nz4SGvJQ0JvyH-37" target="gbeb102Nz4SGvJQ0JvyH-7" edge="1">
          <mxGeometry width="50" height="50" relative="1" as="geometry">
            <mxPoint x="495" y="320" as="sourcePoint" />
            <mxPoint x="495" y="100" as="targetPoint" />
          </mxGeometry>
        </mxCell>
        <mxCell id="gbeb102Nz4SGvJQ0JvyH-39" value="" style="shape=image;verticalLabelPosition=bottom;labelBackgroundColor=default;verticalAlign=top;aspect=fixed;imageAspect=0;image=data:image/png,iVBORw0KGgoAAAANSUhEUgAAACQAAAAkCAMAAADW3miqAAAAAXNSR0IArs4c6QAAAARnQU1BAACxjwv8YQUAAADkUExURQAAAP8AAP8AAP8AAP8AAP8AAP8AAP8AAP8AAP8AAP8AAP8AAP8AAP8AAP8AAP8AAP8AAP8AAP8AAP8AAP8AAP8AAP8AAP8AAP8AAP8AAP8AAP8AAP8AAP8AAP8AAP8AAP8DA/8ICP8KCv8MDP8NDf8QEP8REf8UFP8YGP8gIP8hIf8kJP8oKP8qKv8tLf8uLv80NP9AQP9LS/9PT/9QUP9gYP9iYv9wcP91df98fP+Cgv+Hh/+Pj/+dnf+fn/+np/+vr/+3t/+9vf+/v//Kyv/Pz//R0f/f3//n5//v7//39////8jzct0AAAAfdFJOUwAIEBggKDA4QEhQWGhweICHj5efp6+3v8fP19/n7/dK1oigAAAACXBIWXMAABcRAAAXEQHKJvM/AAABrUlEQVQ4T32UiXaCMBBF41pLXXCnbtFuamtLF7prV6W1/P//9E0YMIryzuExzNwTAslErClbrDShammfExGly20ZqlvNcVpX0uxxPVA9zaVQRpdLuopcZBU57Uy/4W/3I/+xluA6qapSw+e5bduu68Jn1yplrSge58/z4B77R59ydUaEQU9QUGafqCTPK0WfNZwELwr99uqIqKyCyhRuDgN3vd8hbhYxGf//bIO8KVUMQBUKdkAuVWioDu7vEQJuS2kvEMqUyMH76x+vQd4N4rww4WcbZQ16RdwQNfhLlIAHc5It0YTPcMVAPUF76BNXDCTVx02iBFzNyTslyIJdxECIpajDxruhH8Rt9cMfogQ8nJMlDuDnuGIgUyR5/8dAe0I0cHMiBJzmRNuggwVW+3KxHbocIDRpQx0iGC+3QseIOqoXsogiBNz1HqlQIIa3nbOMQIppclMlaJHlhDaYDqnOayd9BueAf1Lcfa26Zf50QqluhhEoRSso5cCB+cP4fd72+4mV4HaARmMOsB7hu1hGiyuhugX9uGDltTMMiLk5DCtTavoraVW0c06If/L5sbM7SElwAAAAAElFTkSuQmCC;" parent="1" vertex="1">
          <mxGeometry x="91" y="540" width="25" height="25" as="geometry" />
        </mxCell>
        <mxCell id="gbeb102Nz4SGvJQ0JvyH-40" value="Future" style="text;html=1;strokeColor=none;fillColor=none;align=center;verticalAlign=middle;whiteSpace=wrap;rounded=0;fontFamily=Verdana;fontSize=14;fontColor=#FF0000;" parent="1" vertex="1">
          <mxGeometry x="127" y="535" width="41" height="30" as="geometry" />
        </mxCell>
        <mxCell id="gbeb102Nz4SGvJQ0JvyH-44" value="" style="ellipse;whiteSpace=wrap;html=1;aspect=fixed;fontFamily=Verdana;fontSize=18;strokeWidth=2;" parent="1" vertex="1">
          <mxGeometry x="91" y="510" width="25" height="25" as="geometry" />
        </mxCell>
        <mxCell id="gbeb102Nz4SGvJQ0JvyH-45" value="Present" style="text;html=1;strokeColor=none;fillColor=none;align=center;verticalAlign=middle;whiteSpace=wrap;rounded=0;fontFamily=Verdana;fontSize=14;" parent="1" vertex="1">
          <mxGeometry x="120.5" y="510" width="60" height="30" as="geometry" />
        </mxCell>
        <mxCell id="gbeb102Nz4SGvJQ0JvyH-48" value="" style="ellipse;whiteSpace=wrap;html=1;aspect=fixed;fontFamily=Verdana;fontSize=18;strokeWidth=2;strokeColor=#FF0000;" parent="1" vertex="1">
          <mxGeometry x="280" y="320" width="20" height="20" as="geometry" />
        </mxCell>
        <mxCell id="gbeb102Nz4SGvJQ0JvyH-49" value="Capability" style="text;html=1;strokeColor=none;fillColor=none;align=center;verticalAlign=middle;whiteSpace=wrap;rounded=0;fontFamily=Verdana;fontSize=14;fontColor=#FF0000;" parent="1" vertex="1">
          <mxGeometry x="300" y="315" width="75" height="30" as="geometry" />
        </mxCell>
        <mxCell id="gbeb102Nz4SGvJQ0JvyH-50" value="" style="endArrow=none;html=1;rounded=0;strokeWidth=2;fontFamily=Verdana;fontSize=18;jumpStyle=arc;exitX=0.5;exitY=0;exitDx=0;exitDy=0;strokeColor=#FF0000;" parent="1" source="gbeb102Nz4SGvJQ0JvyH-53" target="gbeb102Nz4SGvJQ0JvyH-7" edge="1">
          <mxGeometry width="50" height="50" relative="1" as="geometry">
            <mxPoint x="495" y="320" as="sourcePoint" />
            <mxPoint x="400" y="170" as="targetPoint" />
          </mxGeometry>
        </mxCell>
        <mxCell id="gbeb102Nz4SGvJQ0JvyH-51" value="Need" style="text;html=1;strokeColor=none;fillColor=none;align=center;verticalAlign=middle;whiteSpace=wrap;rounded=0;fontFamily=Verdana;fontSize=14;fontColor=#4472C4;" parent="1" vertex="1">
          <mxGeometry x="549" y="135" width="41" height="30" as="geometry" />
        </mxCell>
        <mxCell id="gbeb102Nz4SGvJQ0JvyH-52" value="" style="shape=image;verticalLabelPosition=bottom;labelBackgroundColor=default;verticalAlign=top;aspect=fixed;imageAspect=0;image=data:image/png,iVBORw0KGgoAAAANSUhEUgAAACQAAAAkCAMAAADW3miqAAAAAXNSR0IArs4c6QAAAARnQU1BAACxjwv8YQUAAADJUExURQAAAECAv0Bwv0B1v0hwx0ZzxkVwxURyxER0w0Nxw0NzwkNxwkVxxERyxERxxERyw0RzxERyxERzxEVyxUVzxURyxURyxERzxERyxERzxERyxEVyxURyxERyxERyxERyw0RyxERzxEVyxUZ0xUh0xUp2xk15x1B7yFF7yVZ/yleAyluDy1yEzGGIzWSJzmWLz2aLz3OW03uc1X+e14Wj2Yun25y14Ke8463B5bnK6b7O6sTT7NDc8N3m9OLp9ujt+PP2+/n7/f///xuUCyQAAAAfdFJOUwAIEBggKDA4QEhQWGhweICHj5efp6+3v8fP19/n7/dK1oigAAAACXBIWXMAABcRAAAXEQHKJvM/AAABo0lEQVQ4T32UiVbCMBBFwypWlrK2UsAooiKiEURFqEv+/6N80wwlUco7J6/pzD3JtFmEo3K9FUDtxikH/qnYjGSqYbvCYVt5f8T5nbpFTqXyhpyyVeckq26ik+U7fLteXZv3To7zpLaJyR+t4VprJS+TQLinknEmaEgbV1LObinaZUR49GYR8FjrOAnu6irwZx2GZDmBmug5c8EZmqKFxJRooPs4jpVSqS+UWuAxQ0p6gFrUcYaBo3BlXsxQAzwvjkGyICrw8dN+Imc6pW6QrgofvnKHgXPhWr/Be6IDX2dDn/C+CODbbOgbPhK8h2wCvi+c/mDycVAmRCsoQhiUCZFEF7ZxCXha0xc8Sn74azb0AQ/FGXyeDb3AfZE3G8Um4E5NJ0L0ks4RaIAFNvvyCOTThjpH58HkUueantEGyVkoo0eH4wBEqhGz23YZUMCHKkeLLOdoKYeaHmkuGeUNg3vArPKVA40pNCwxAhV4BZdr2hpab+7Me2TOEyvHdUFT+lKjMJ2L5fU5k2pYs68LVtW6w4D4f4dhlRqBWcmwZd1zQvwCczOpTLAqjrgAAAAASUVORK5CYII=;" parent="1" vertex="1">
          <mxGeometry x="510" y="140" width="20" height="20" as="geometry" />
        </mxCell>
        <mxCell id="gbeb102Nz4SGvJQ0JvyH-53" value="" style="shape=image;verticalLabelPosition=bottom;labelBackgroundColor=default;verticalAlign=top;aspect=fixed;imageAspect=0;image=data:image/png,iVBORw0KGgoAAAANSUhEUgAAACQAAAAkCAMAAADW3miqAAAAAXNSR0IArs4c6QAAAARnQU1BAACxjwv8YQUAAADkUExURQAAAP8AAP8AAP8AAP8AAP8AAP8AAP8AAP8AAP8AAP8AAP8AAP8AAP8AAP8AAP8AAP8AAP8AAP8AAP8AAP8AAP8AAP8AAP8AAP8AAP8AAP8AAP8AAP8AAP8AAP8AAP8AAP8DA/8ICP8KCv8MDP8NDf8QEP8REf8UFP8YGP8gIP8hIf8kJP8oKP8qKv8tLf8uLv80NP9AQP9LS/9PT/9QUP9gYP9iYv9wcP91df98fP+Cgv+Hh/+Pj/+dnf+fn/+np/+vr/+3t/+9vf+/v//Kyv/Pz//R0f/f3//n5//v7//39////8jzct0AAAAfdFJOUwAIEBggKDA4QEhQWGhweICHj5efp6+3v8fP19/n7/dK1oigAAAACXBIWXMAABcRAAAXEQHKJvM/AAABrUlEQVQ4T32UiXaCMBBF41pLXXCnbtFuamtLF7prV6W1/P//9E0YMIryzuExzNwTAslErClbrDShammfExGly20ZqlvNcVpX0uxxPVA9zaVQRpdLuopcZBU57Uy/4W/3I/+xluA6qapSw+e5bduu68Jn1yplrSge58/z4B77R59ydUaEQU9QUGafqCTPK0WfNZwELwr99uqIqKyCyhRuDgN3vd8hbhYxGf//bIO8KVUMQBUKdkAuVWioDu7vEQJuS2kvEMqUyMH76x+vQd4N4rww4WcbZQ16RdwQNfhLlIAHc5It0YTPcMVAPUF76BNXDCTVx02iBFzNyTslyIJdxECIpajDxruhH8Rt9cMfogQ8nJMlDuDnuGIgUyR5/8dAe0I0cHMiBJzmRNuggwVW+3KxHbocIDRpQx0iGC+3QseIOqoXsogiBNz1HqlQIIa3nbOMQIppclMlaJHlhDaYDqnOayd9BueAf1Lcfa26Zf50QqluhhEoRSso5cCB+cP4fd72+4mV4HaARmMOsB7hu1hGiyuhugX9uGDltTMMiLk5DCtTavoraVW0c06If/L5sbM7SElwAAAAAElFTkSuQmCC;" parent="1" vertex="1">
          <mxGeometry x="330" y="135" width="25" height="25" as="geometry" />
        </mxCell>
        <mxCell id="gbeb102Nz4SGvJQ0JvyH-54" value="Need" style="text;html=1;strokeColor=none;fillColor=none;align=center;verticalAlign=middle;whiteSpace=wrap;rounded=0;fontFamily=Verdana;fontSize=14;fontColor=#FF0000;" parent="1" vertex="1">
          <mxGeometry x="280" y="132.5" width="41" height="30" as="geometry" />
        </mxCell>
        <mxCell id="gbeb102Nz4SGvJQ0JvyH-56" value="" style="endArrow=none;html=1;rounded=0;strokeWidth=2;fontFamily=Verdana;fontSize=18;jumpStyle=arc;entryX=0.25;entryY=1;entryDx=0;entryDy=0;exitX=0.5;exitY=0;exitDx=0;exitDy=0;strokeColor=#FF0000;" parent="1" source="gbeb102Nz4SGvJQ0JvyH-48" target="gbeb102Nz4SGvJQ0JvyH-53" edge="1">
          <mxGeometry width="50" height="50" relative="1" as="geometry">
            <mxPoint x="352.5" y="145" as="sourcePoint" />
            <mxPoint x="475" y="100" as="targetPoint" />
          </mxGeometry>
        </mxCell>
        <mxCell id="KHLUM0d-9jioQt2E-rLw-1" value="" style="endArrow=none;html=1;rounded=0;strokeWidth=2;fontFamily=Verdana;fontSize=18;jumpStyle=arc;entryX=0.5;entryY=1;entryDx=0;entryDy=0;exitX=0.5;exitY=0;exitDx=0;exitDy=0;" edge="1" parent="1" source="gbeb102Nz4SGvJQ0JvyH-24" target="gbeb102Nz4SGvJQ0JvyH-52">
          <mxGeometry width="50" height="50" relative="1" as="geometry">
            <mxPoint x="525" y="150" as="sourcePoint" />
            <mxPoint x="495" y="100" as="targetPoint" />
          </mxGeometry>
        </mxCell>
        <mxCell id="KHLUM0d-9jioQt2E-rLw-2" value="User" style="text;html=1;strokeColor=none;fillColor=none;align=center;verticalAlign=middle;whiteSpace=wrap;rounded=0;fontFamily=Verdana;fontSize=14;" vertex="1" parent="1">
          <mxGeometry x="525" y="33" width="60" height="30" as="geometry" />
        </mxCell>
      </root>
    </mxGraphModel>
  </diagram>
</mxfile>
